<svg width="12" height="16" viewBox="0 0 12 16" fill="none" xmlns="http://www.w3.org/2000/svg">
<path d="M8.65625 3.34375L7.71875 4.28125L6.65625 3.21875V10.6562H5.34375V3.21875L4.28125 4.28125L3.34375 3.34375L6 0.65625L8.65625 3.34375ZM11.3438 6.65625V14C11.3438 14.375 11.2083 14.6979 10.9375 14.9688C10.6875 15.2188 10.375 15.3438 10 15.3438H2C1.625 15.3438 1.30208 15.2188 1.03125 14.9688C0.78125 14.6979 0.65625 14.375 0.65625 14V6.65625C0.65625 6.30208 0.78125 6 1.03125 5.75C1.30208 5.47917 1.625 5.34375 2 5.34375H4V6.65625H2V14H10V6.65625H8V5.34375H10C10.375 5.34375 10.6875 5.47917 10.9375 5.75C11.2083 6 11.3438 6.30208 11.3438 6.65625Z" fill="#0F0F0F"/>
</svg>
