<svg width="40" height="40" viewBox="0 0 40 40" fill="none" xmlns="http://www.w3.org/2000/svg">
<path d="M16.1248 22.833L17.5832 18.083L13.7498 14.9997H18.4998L19.9998 10.333L21.4998 14.9997H26.2498L22.3748 18.083L23.8332 22.833L19.9998 19.8747L16.1248 22.833ZM9.99984 38.333V25.458C8.94428 24.2913 8.12484 22.958 7.5415 21.458C6.95817 19.958 6.6665 18.3608 6.6665 16.6663C6.6665 12.9441 7.95817 9.79134 10.5415 7.20801C13.1248 4.62467 16.2776 3.33301 19.9998 3.33301C23.7221 3.33301 26.8748 4.62467 29.4582 7.20801C32.0415 9.79134 33.3332 12.9441 33.3332 16.6663C33.3332 18.3608 33.0415 19.958 32.4582 21.458C31.8748 22.958 31.0554 24.2913 29.9998 25.458V38.333L19.9998 34.9997L9.99984 38.333ZM19.9998 26.6663C22.7776 26.6663 25.1387 25.6941 27.0832 23.7497C29.0276 21.8052 29.9998 19.4441 29.9998 16.6663C29.9998 13.8886 29.0276 11.5275 27.0832 9.58301C25.1387 7.63856 22.7776 6.66634 19.9998 6.66634C17.2221 6.66634 14.8609 7.63856 12.9165 9.58301C10.9721 11.5275 9.99984 13.8886 9.99984 16.6663C9.99984 19.4441 10.9721 21.8052 12.9165 23.7497C14.8609 25.6941 17.2221 26.6663 19.9998 26.6663Z" fill="#2B2B2B"/>
</svg>
