<svg width="40" height="40" viewBox="0 0 40 40" fill="none" xmlns="http://www.w3.org/2000/svg">
<path d="M18.3335 9.99983H23.3335L28.8169 4.49983C28.9718 4.34362 29.1562 4.21963 29.3593 4.13501C29.5624 4.0504 29.7802 4.00684 30.0002 4.00684C30.2202 4.00684 30.4381 4.0504 30.6412 4.13501C30.8443 4.21963 31.0286 4.34362 31.1835 4.49983L35.4835 8.8165C35.794 9.12877 35.9682 9.55119 35.9682 9.9915C35.9682 10.4318 35.794 10.8542 35.4835 11.1665L31.6669 14.9998H18.3335V18.3332C18.3335 18.7752 18.158 19.1991 17.8454 19.5117C17.5328 19.8242 17.1089 19.9998 16.6669 19.9998C16.2249 19.9998 15.8009 19.8242 15.4884 19.5117C15.1758 19.1991 15.0002 18.7752 15.0002 18.3332V13.3332C15.0002 12.4491 15.3514 11.6013 15.9765 10.9761C16.6016 10.351 17.4495 9.99983 18.3335 9.99983ZM8.33355 18.3332V24.9998L4.51688 28.8165C4.20646 29.1288 4.03223 29.5512 4.03223 29.9915C4.03223 30.4318 4.20646 30.8542 4.51688 31.1665L8.81688 35.4832C8.97182 35.6394 9.15615 35.7634 9.35925 35.848C9.56235 35.9326 9.78019 35.9762 10.0002 35.9762C10.2202 35.9762 10.4381 35.9326 10.6412 35.848C10.8443 35.7634 11.0286 35.6394 11.1835 35.4832L18.3335 28.3332H25.0002C25.4422 28.3332 25.8662 28.1576 26.1787 27.845C26.4913 27.5325 26.6669 27.1085 26.6669 26.6665V24.9998H28.3335C28.7756 24.9998 29.1995 24.8242 29.5121 24.5117C29.8246 24.1991 30.0002 23.7752 30.0002 23.3332V21.6665H31.6669C32.1089 21.6665 32.5328 21.4909 32.8454 21.1783C33.158 20.8658 33.3335 20.4419 33.3335 19.9998V18.3332H21.6669V19.9998C21.6669 20.8839 21.3157 21.7317 20.6906 22.3569C20.0654 22.982 19.2176 23.3332 18.3335 23.3332H15.0002C14.1162 23.3332 13.2683 22.982 12.6432 22.3569C12.0181 21.7317 11.6669 20.8839 11.6669 19.9998V14.9998L8.33355 18.3332Z" fill="#2B2B2B"/>
</svg>
