<svg width="40" height="40" viewBox="0 0 40 40" fill="none" xmlns="http://www.w3.org/2000/svg">
<path d="M23.3332 21.667C21.9443 21.667 20.7637 21.1809 19.7915 20.2087C18.8193 19.2364 18.3332 18.0559 18.3332 16.667C18.3332 15.2781 18.8193 14.0975 19.7915 13.1253C20.7637 12.1531 21.9443 11.667 23.3332 11.667C24.7221 11.667 25.9026 12.1531 26.8748 13.1253C27.8471 14.0975 28.3332 15.2781 28.3332 16.667C28.3332 18.0559 27.8471 19.2364 26.8748 20.2087C25.9026 21.1809 24.7221 21.667 23.3332 21.667ZM8.33317 26.667V6.66699H38.3332V26.667H8.33317ZM14.9998 23.3337H31.6665C31.6665 22.417 31.9932 21.6325 32.6465 20.9803C33.2998 20.3281 34.0843 20.0014 34.9998 20.0003V13.3337C34.0832 13.3337 33.2987 13.0075 32.6465 12.3553C31.9943 11.7031 31.6676 10.9181 31.6665 10.0003H14.9998C14.9998 10.917 14.6737 11.702 14.0215 12.3553C13.3693 13.0087 12.5843 13.3348 11.6665 13.3337V20.0003C12.5832 20.0003 13.3682 20.327 14.0215 20.9803C14.6748 21.6337 15.0009 22.4181 14.9998 23.3337ZM1.6665 33.3337V11.667H4.99984V30.0003H33.3332V33.3337H1.6665Z" fill="#2B2B2B"/>
</svg>
