<svg width="40" height="40" viewBox="0 0 40 40" fill="none" xmlns="http://www.w3.org/2000/svg">
<path d="M20.0002 16.6663C21.7683 16.6663 23.464 15.964 24.7142 14.7137C25.9645 13.4635 26.6668 11.7678 26.6668 9.99967C26.6668 8.23156 25.9645 6.53587 24.7142 5.28563C23.464 4.03539 21.7683 3.33301 20.0002 3.33301C18.2321 3.33301 16.5364 4.03539 15.2861 5.28563C14.0359 6.53587 13.3335 8.23156 13.3335 9.99967C13.3335 11.7678 14.0359 13.4635 15.2861 14.7137C16.5364 15.964 18.2321 16.6663 20.0002 16.6663ZM9.16683 21.6663C10.2719 21.6663 11.3317 21.2274 12.1131 20.446C12.8945 19.6646 13.3335 18.6047 13.3335 17.4997C13.3335 16.3946 12.8945 15.3348 12.1131 14.5534C11.3317 13.772 10.2719 13.333 9.16683 13.333C8.06176 13.333 7.00195 13.772 6.22055 14.5534C5.43915 15.3348 5.00016 16.3946 5.00016 17.4997C5.00016 18.6047 5.43915 19.6646 6.22055 20.446C7.00195 21.2274 8.06176 21.6663 9.16683 21.6663ZM35.0002 17.4997C35.0002 18.6047 34.5612 19.6646 33.7798 20.446C32.9984 21.2274 31.9386 21.6663 30.8335 21.6663C29.7284 21.6663 28.6686 21.2274 27.8872 20.446C27.1058 19.6646 26.6668 18.6047 26.6668 17.4997C26.6668 16.3946 27.1058 15.3348 27.8872 14.5534C28.6686 13.772 29.7284 13.333 30.8335 13.333C31.9386 13.333 32.9984 13.772 33.7798 14.5534C34.5612 15.3348 35.0002 16.3946 35.0002 17.4997ZM20.0002 18.333C22.2103 18.333 24.3299 19.211 25.8927 20.7738C27.4555 22.3366 28.3335 24.4562 28.3335 26.6663V36.6663H11.6668V26.6663C11.6668 24.4562 12.5448 22.3366 14.1076 20.7738C15.6704 19.211 17.79 18.333 20.0002 18.333ZM8.3335 26.6663C8.3335 25.5113 8.50016 24.3963 8.8135 23.343L8.53016 23.3663C7.10163 23.5232 5.78127 24.2019 4.82227 25.2722C3.86327 26.3425 3.33312 27.7292 3.3335 29.1663V36.6663H8.3335V26.6663ZM36.6668 36.6663V29.1663C36.667 27.6803 36.1 26.2502 35.0816 25.168C34.0632 24.0858 32.6702 23.433 31.1868 23.343C31.4985 24.3963 31.6668 25.5113 31.6668 26.6663V36.6663H36.6668Z" fill="#2B2B2B"/>
</svg>
